<svg width="45" height="16" viewBox="0 0 45 16" fill="none" xmlns="http://www.w3.org/2000/svg">
<path d="M14.2721 0.772329C13.4702 1.10378 12.9356 2.03396 13.0746 2.85723C13.1602 3.41321 13.6306 4.03333 14.1331 4.26855C15.3734 4.82453 16.7526 4.04403 16.8595 2.71824C16.9771 1.27484 15.5765 0.227046 14.2721 0.772329ZM6.02871 0.825788C4.15764 1.69183 4.75638 4.4717 6.79852 4.4717C7.41865 4.4717 8.08154 4.09749 8.3916 3.5522C9.35387 1.91635 7.72871 0.0452854 6.02871 0.825788ZM17.5438 7.90378C16.913 8.11761 16.6457 8.87673 16.9771 9.52893L16.9868 9.5483C17.1043 9.78321 17.0711 10.0654 16.9023 10.2667C16.1004 11.2289 14.9564 11.9346 13.4595 12.405C12.7539 12.6189 12.4438 12.6509 10.9469 12.6509C9.47148 12.6509 9.11865 12.6189 8.38091 12.405C7.10859 12.0308 5.97525 11.3893 5.20544 10.5981C4.57462 9.93522 4.56393 9.91384 4.735 9.65724C5.42997 8.59874 4.07211 7.24088 3.12053 8.04277C2.78909 8.32076 0.383425 12.4264 0.255123 12.9289C0.158897 13.3352 0.447576 13.9447 0.832481 14.1371C1.58091 14.5327 2.1155 14.2333 2.81047 13.0359C3.08846 12.5547 3.33437 12.1698 3.36645 12.1698C3.39852 12.1698 3.60167 12.3409 3.8155 12.5547C4.76707 13.4742 6.32808 14.2975 8.0067 14.7465C8.79789 14.9604 9.1828 14.9925 10.8935 15.0031C12.6363 15.0031 12.9784 14.9711 13.7696 14.7572C15.4482 14.2975 16.7312 13.6346 17.918 12.6296L18.2542 12.3451C18.3697 12.2474 18.5451 12.2759 18.6237 12.405C18.7092 12.544 18.9551 12.9503 19.169 13.3245C19.7249 14.2547 20.2595 14.5006 20.9438 14.1478C21.3501 13.934 21.6281 13.4101 21.5532 12.9824C21.4998 12.6616 19.1797 8.57736 18.8268 8.17107C18.4954 7.79686 18.0784 7.71132 17.5438 7.90378Z" fill="white"/>
<path d="M37.2721 0.772329C36.4702 1.10378 35.9356 2.03396 36.0746 2.85723C36.1602 3.41321 36.6306 4.03333 37.1331 4.26855C38.3734 4.82453 39.7526 4.04403 39.8595 2.71824C39.9771 1.27484 38.5765 0.227046 37.2721 0.772329ZM29.0287 0.825788C27.1576 1.69183 27.7564 4.4717 29.7985 4.4717C30.4187 4.4717 31.0815 4.09749 31.3916 3.5522C32.3539 1.91635 30.7287 0.0452854 29.0287 0.825788ZM40.5438 7.90378C39.913 8.11761 39.6457 8.87673 39.9771 9.52893L39.9868 9.5483C40.1043 9.78321 40.0711 10.0654 39.9023 10.2667C39.1004 11.2289 37.9564 11.9346 36.4595 12.405C35.7539 12.6189 35.4438 12.6509 33.9469 12.6509C32.4715 12.6509 32.1187 12.6189 31.3809 12.405C30.1086 12.0308 28.9753 11.3893 28.2054 10.5981C27.5746 9.93522 27.5639 9.91384 27.735 9.65724C28.43 8.59874 27.0721 7.24088 26.1205 8.04277C25.7891 8.32076 23.3834 12.4264 23.2551 12.9289C23.1589 13.3352 23.4476 13.9447 23.8325 14.1371C24.5809 14.5327 25.1155 14.2333 25.8105 13.0359C26.0885 12.5547 26.3344 12.1698 26.3665 12.1698C26.3985 12.1698 26.6017 12.3409 26.8155 12.5547C27.7671 13.4742 29.3281 14.2975 31.0067 14.7465C31.7979 14.9604 32.1828 14.9925 33.8935 15.0031C35.6363 15.0031 35.9784 14.9711 36.7696 14.7572C38.4482 14.2975 39.7312 13.6346 40.918 12.6296L41.2542 12.3451C41.3697 12.2474 41.5451 12.2759 41.6237 12.405C41.7092 12.544 41.9551 12.9503 42.169 13.3245C42.7249 14.2547 43.2595 14.5006 43.9438 14.1478C44.3501 13.934 44.6281 13.4101 44.5532 12.9824C44.4998 12.6616 42.1797 8.57736 41.8268 8.17107C41.4954 7.79686 41.0784 7.71132 40.5438 7.90378Z" fill="black"/>
</svg>
