<svg width="28" height="23" viewBox="0 0 28 23" fill="none" xmlns="http://www.w3.org/2000/svg">
<path d="M21.851 10.1385C23.4492 10.3001 24.7277 10.9871 25.6866 12.1994C26.6455 13.4116 27.125 14.9068 27.125 16.6848C27.125 18.382 26.5656 19.7963 25.4469 20.9278C24.3282 22.0593 22.8099 22.625 20.8921 22.625C19.0542 22.625 17.5759 22.0593 16.4572 20.9278C15.3385 19.7155 14.7791 17.8971 14.7791 15.4725C14.7791 12.9671 15.8179 10.1789 17.8955 7.10776C19.9732 3.95582 22.1307 1.85453 24.3682 0.803878C24.6878 0.642242 25.1672 0.84429 25.8065 1.41002C26.4458 1.97576 26.7654 2.46067 26.7654 2.86477C24.4481 4.48114 22.8099 6.90571 21.851 10.1385ZM7.94692 10.1385C9.46518 10.3001 10.7038 10.9871 11.6627 12.1994C12.6216 13.4116 13.101 14.9068 13.101 16.6848C13.101 18.382 12.5417 19.7963 11.4229 20.9278C10.3841 22.0593 8.90582 22.625 6.98801 22.625C5.15011 22.625 3.6718 22.0593 2.55308 20.9278C1.43436 19.7155 0.875 17.8971 0.875 15.4725C0.875 12.9671 1.87386 10.1789 3.87158 7.10776C5.9492 3.95582 8.14669 1.85453 10.464 0.803878C10.7837 0.642242 11.2631 0.84429 11.9024 1.41002C12.5417 1.97576 12.8613 2.46067 12.8613 2.86477C10.544 4.48114 8.90582 6.90571 7.94692 10.1385Z" fill="#474EFB"/>
</svg>
