<svg width="28" height="20" viewBox="0 0 28 20" fill="none" xmlns="http://www.w3.org/2000/svg">
<path d="M27 20C27.5523 20 28 19.5523 28 19L28 8.5C28 7.94771 27.5523 7.5 27 7.5L18 7.5C18 4.72656 20.2266 2.5 23 2.5L23 4.37114e-07C18.874 7.97818e-07 15.5 3.37402 15.5 7.5L15.5 19C15.5 19.5523 15.9477 20 16.5 20L27 20ZM10.5 20C11.6046 20 12.5 19.1046 12.5 18L12.5 9.5C12.5 8.39543 11.6046 7.5 10.5 7.5L2.5 7.5C2.5 4.72656 4.72656 2.5 7.5 2.5L7.5 1.79217e-06C3.37402 2.15287e-06 -1.45349e-06 3.37403 -1.09278e-06 7.5L-1.74846e-07 18C-7.82811e-08 19.1046 0.89543 20 2 20L10.5 20ZM25.5 17C25.5 17.2761 25.2761 17.5 25 17.5L18.5 17.5C18.2239 17.5 18 17.2761 18 17L18 10.5C18 10.2239 18.2239 10 18.5 10L25 10C25.2761 10 25.5 10.2239 25.5 10.5L25.5 17ZM10 17C10 17.2761 9.77614 17.5 9.5 17.5L3 17.5C2.72386 17.5 2.5 17.2761 2.5 17L2.5 10.5C2.5 10.2239 2.72386 10 3 10L9.5 10C9.77614 10 10 10.2239 10 10.5L10 17Z" fill="black"/>
</svg>
